<svg xmlns="http://www.w3.org/2000/svg" viewBox="0 0 24 24" fill="none" stroke="#012638" stroke-width="1.6" stroke-linecap="round" stroke-linejoin="round" style="width: 28px; height: 28px;"><path d="M19.5 14.25v-2.63c0-3.07-2.13-5.78-5.13-6.4-.62-.13-1.24-.25-1.87-.34V3.75A.75.75 0 0 0 11.75 3h-1.5a.75.75 0 0 0-.75.75v1.13c-.63.09-1.25.2-1.87.34-3 .62-5.13 3.33-5.13 6.4V20.25M16.5 18.75h-9a3 3 0 0 1-3-3v-3.75c0-3 1.92-5.62 4.75-6.45M9.75 9h4.5"></path><path d="M3.75 21h16.5M9 12h6m-6 3h6"></path></svg>